<svg id="Layer_1" data-name="Layer 1" xmlns="http://www.w3.org/2000/svg" viewBox="0 0 282.92 345.63"><defs><style>.cls-1,.cls-2{fill:none;stroke-width:13px;}.cls-1,.cls-4{stroke:#000;}.cls-1,.cls-2,.cls-4{stroke-miterlimit:10;}.cls-2{stroke:#a3001f;}.cls-3{fill:#a30000;}</style></defs><title>hg</title><polyline class="cls-1" points="203.82 121.63 117.32 35.13 25.82 126.63 25.82 292.91 25.82 299.55"/><polyline class="cls-2" points="141.46 133.67 141.46 170.63 141.46 292.91 253.82 292.91 253.82 123.27 143.46 12.91 134.91 4.68"/><line class="cls-1" x1="25.82" y1="214.27" x2="135.82" y2="214.27"/><path d="M83.18,395.68h3.28V409.4H96.55V395.68h3.28v32.68H96.55v-16H86.46v16H83.18Z" transform="translate(-83.18 -83.37)"/><path d="M130,415.63c0,2.06-.15,13.18-9.06,13.18-4.12,0-9.06-2.94-9.06-13.18s4.85-13.23,9.06-13.23S130,405.34,130,415.63Zm-14.7,0c0,3.72.69,10.09,5.63,10.09s5.63-6.37,5.63-10.09-.69-10.14-5.63-10.14S115.27,411.85,115.27,415.63Z" transform="translate(-83.18 -83.37)"/><path d="M144.57,407.69h-.1l-.64,20.68h-3.48l1-25.53h4.31l4.61,11.07,4.61-11.07h4.31l1,25.53h-3.48l-.64-20.68H156l-5.73,13.47Z" transform="translate(-83.18 -83.37)"/><path d="M172.7,402.84h15.92v2.94H176v7.64h10.44v2.94H176v9.06h12.64v2.94H172.7Z" transform="translate(-83.18 -83.37)"/><path class="cls-3" d="M229.64,398.62v-2.94h8.62c6.57,0,10.44,2.89,10.44,16.37,0,7.2-.39,16.32-10.34,16.32h-8.72v-2.94h2.65v-26.8Zm5.93,26.8h2.69c4,0,7-1,7-13.38s-3.33-13.42-6.22-13.42h-3.48Z" transform="translate(-83.18 -83.37)"/><path class="cls-3" d="M260.9,402.84h15.92v2.94H264.18v7.64h10.44v2.94H264.18v9.06h12.64v2.94H260.9Z" transform="translate(-83.18 -83.37)"/><path class="cls-3" d="M306.47,423.46c-2.06,3.23-4.51,5.34-8.48,5.34-7.45,0-9.8-6.86-9.8-13.18,0-10.19,5.39-13.23,9.51-13.23s6.27,2.06,8.08,5.44l-3,1.52c-1.08-2.06-2.55-3.87-5-3.87-5.1,0-6.12,6.17-6.12,10.09s.93,10.14,6.12,10.14c3,0,4.51-1.81,6-4.12Z" transform="translate(-83.18 -83.37)"/><path class="cls-3" d="M335.77,415.63c0,2.06-.15,13.18-9.06,13.18-4.12,0-9.06-2.94-9.06-13.18s4.85-13.23,9.06-13.23S335.77,405.34,335.77,415.63Zm-14.7,0c0,3.72.69,10.09,5.63,10.09s5.63-6.37,5.63-10.09-.69-10.14-5.63-10.14S321.07,411.85,321.07,415.63Z" transform="translate(-83.18 -83.37)"/><path class="cls-3" d="M348.7,402.84h8.67c4.26,0,7.64,2,7.64,7a7.58,7.58,0,0,1-5.19,7.15l6.27,10.34L363.26,429l-6.52-11.56H352v10.93H348.7Zm7.59,11.66c3.19,0,5.29-1.81,5.29-4.7,0-2.3-1.37-4-4.31-4H352v8.72Z" transform="translate(-83.18 -83.37)"/><rect class="cls-4" x="134.91" y="133.67" width="6.55" height="165.88"/><rect class="cls-3" x="220.01" y="133.67" width="6.55" height="137.28"/></svg>